<?xml version="1.0" standalone="no"?>
<!DOCTYPE svg PUBLIC "-//W3C//DTD SVG 20010904//EN"
 "http://www.w3.org/TR/2001/REC-SVG-20010904/DTD/svg10.dtd">
<svg version="1.0" xmlns="http://www.w3.org/2000/svg"
 width="300.000000pt" height="300.000000pt" viewBox="0 0 300.000000 300.000000"
 preserveAspectRatio="xMidYMid meet">

<g transform="translate(0.000000,300.000000) scale(0.100000,-0.100000)"
fill="#000000" stroke="none">
<path d="M1270 2559 c0 -12 19 -41 44 -65 42 -43 43 -44 18 -44 -17 0 -40 14
-64 37 -39 38 -58 40 -39 4 6 -11 35 -49 63 -83 40 -49 44 -56 17 -33 -19 17
-43 40 -54 53 -18 20 -31 23 -118 25 -71 3 -103 0 -117 -10 -24 -17 -26 -41
-5 -49 30 -12 14 -24 -26 -19 -23 3 -45 8 -49 10 -4 2 -7 -2 -7 -10 0 -8 4
-15 8 -15 4 0 5 -9 2 -19 -3 -12 -11 -17 -19 -14 -16 6 -10 -20 10 -46 6 -7
12 -30 13 -50 2 -20 6 -55 9 -79 7 -51 -6 -72 -46 -72 -19 0 -37 10 -54 31
-31 37 -33 62 -5 100 l20 29 -20 0 c-13 0 -21 -7 -22 -17 0 -20 -53 -66 -75
-66 -9 0 -14 -12 -14 -32 0 -32 -27 -66 -62 -78 -15 -5 -16 -11 -7 -30 8 -18
17 -22 43 -19 22 3 39 -3 56 -17 l25 -21 -25 -20 c-56 -46 -68 -52 -88 -41
-11 6 -23 22 -26 36 -7 27 -27 33 -45 12 -8 -11 -3 -19 26 -38 42 -27 52 -52
30 -77 -24 -28 -27 -60 -6 -65 10 -3 20 0 23 7 3 7 5 7 5 -1 1 -7 6 -13 11
-13 7 0 7 8 -1 22 -10 19 -8 25 16 46 27 23 43 24 89 6 14 -6 14 -3 1 30 -22
51 -19 72 13 95 45 32 112 4 112 -46 0 -18 5 -23 25 -23 14 0 25 5 25 10 0 6
-5 10 -11 10 -5 0 -7 4 -4 10 3 5 -5 15 -19 22 -48 21 -20 98 37 101 29 2 29
2 18 32 -11 26 16 74 47 82 24 6 87 -30 97 -55 3 -7 -3 -28 -12 -45 -9 -18
-16 -35 -15 -39 1 -3 -13 -2 -30 3 -17 5 -33 7 -35 5 -8 -8 39 -101 57 -113
11 -8 20 -23 20 -34 0 -23 -37 -62 -50 -54 -6 4 -10 1 -10 -4 0 -6 8 -11 19
-11 10 0 24 -6 30 -14 10 -12 19 -7 54 28 23 23 68 59 100 80 31 21 57 45 57
53 0 11 8 13 33 8 18 -3 27 -3 20 2 -7 5 14 8 48 8 59 0 59 0 27 -12 l-33 -13
45 5 c32 4 41 2 30 -5 -8 -5 -24 -10 -35 -10 -11 0 -25 -4 -32 -8 -6 -4 42 -7
107 -7 65 0 116 2 114 4 -2 2 -34 10 -71 17 l-68 13 63 -3 62 -4 0 34 c0 19 3
34 8 34 4 0 22 14 40 31 l34 30 -23 52 c-34 79 -38 110 -23 166 7 28 15 55 19
60 3 5 -1 12 -7 14 -10 4 -10 6 0 6 6 1 12 6 12 11 0 6 9 20 20 32 15 16 20
18 20 7 0 -8 -6 -21 -12 -28 -11 -11 -8 -12 15 -7 18 4 35 2 45 -6 13 -11 15
-10 9 4 -3 9 -2 18 2 20 4 2 11 15 14 30 13 51 -73 86 -138 56 -14 -6 -25 -15
-25 -20 0 -4 -13 -8 -29 -8 -32 0 -41 -14 -41 -63 0 -38 -14 -65 -24 -48 -17
27 -45 124 -39 135 4 6 0 6 -9 -2 -16 -12 -78 -14 -78 -1 0 10 -127 89 -144
89 -10 0 -16 -8 -16 -21z m502 -121 c-6 -22 -8 -22 -31 1 -17 17 -17 20 -3 34
14 15 17 15 27 0 7 -9 10 -25 7 -35z m-464 -104 c-4 -3 -12 5 -18 18 -12 22
-12 22 6 6 10 -10 15 -20 12 -24z m-338 -14 c0 -5 -4 -10 -10 -10 -5 0 -10 5
-10 10 0 6 5 10 10 10 6 0 10 -4 10 -10z m668 -32 c-6 -15 -11 -28 -12 -28 -2
0 -3 13 -3 28 0 16 6 29 13 29 9 0 9 -8 2 -29z m22 -82 c0 -2 -8 -10 -17 -17
-16 -13 -17 -12 -4 4 13 16 21 21 21 13z m-257 -78 c2 -7 2 -21 -1 -32 -5 -17
-6 -16 -18 5 -7 13 -13 27 -14 32 0 12 28 8 33 -5z m-198 -19 c-4 -5 4 -13 17
-18 21 -8 21 -10 4 -16 -11 -5 -21 -3 -27 6 -12 19 -11 52 1 44 6 -4 8 -11 5
-16z m-332 -26 c22 -17 26 -27 21 -48 -3 -14 -11 -24 -18 -22 -6 3 -19 -2 -28
-11 -23 -19 -62 -19 -93 2 -33 22 -32 49 6 80 36 31 73 30 112 -1z m537 -37
c-67 -25 -176 -39 -201 -26 -18 10 -21 10 -17 -2 5 -11 -1 -13 -24 -10 l-31 5
31 12 c39 17 83 22 101 11 10 -6 12 -5 7 2 -4 7 -1 12 8 12 9 0 16 -5 16 -11
0 -5 5 -7 12 -3 7 4 28 9 47 11 20 2 37 6 40 9 2 2 14 4 25 3 15 0 10 -4 -14
-13z"/>
<path d="M1881 2143 c26 -56 81 -153 89 -153 13 0 13 6 -5 43 -8 18 -20 50
-27 72 -10 30 -19 41 -37 43 -13 2 -22 0 -20 -5z"/>
<path d="M1891 1921 c0 -8 -8 -22 -16 -31 -13 -15 -12 -19 10 -40 l25 -23 -1
24 c-2 31 -16 89 -18 70z"/>
<path d="M1000 1905 c0 -8 7 -15 15 -15 8 0 15 4 15 9 0 5 -7 11 -15 15 -9 3
-15 0 -15 -9z"/>
<path d="M1511 1911 c-12 -8 -10 -11 10 -15 54 -11 78 -13 73 -5 -3 5 -21 9
-40 9 -21 0 -33 4 -29 10 8 12 4 12 -14 1z"/>
<path d="M2170 1866 l0 -54 -60 -22 c-34 -13 -71 -35 -84 -51 -13 -15 -27 -25
-30 -22 -4 4 0 -12 8 -35 9 -24 22 -77 31 -118 14 -68 14 -83 0 -152 -9 -42
-22 -94 -31 -116 -10 -26 -12 -42 -5 -50 7 -9 7 -16 -1 -24 -9 -9 -9 -12 0
-12 7 0 12 -5 12 -12 0 -9 -3 -9 -12 0 -7 7 -16 12 -20 12 -5 0 -39 -31 -76
-69 -63 -63 -152 -124 -152 -102 0 5 3 11 8 14 9 5 -11 -2 -73 -24 -27 -10
-68 -19 -90 -19 -29 -1 -35 -3 -21 -9 18 -7 18 -8 2 -14 -10 -4 -30 -7 -44 -8
l-27 -1 28 -10 c15 -5 25 -13 22 -18 -3 -4 5 -10 18 -14 39 -9 76 -159 43
-172 -8 -3 -12 -13 -9 -25 4 -15 8 -17 19 -8 8 6 14 17 14 24 0 28 29 38 78
29 26 -5 46 -12 46 -16 -1 -4 2 -26 7 -49 7 -30 6 -45 -3 -57 -11 -13 -10 -14
2 -10 8 2 17 15 21 29 4 13 7 19 8 14 1 -6 10 -11 21 -12 14 -1 24 8 34 31 8
19 19 37 26 41 18 11 81 18 78 8 -1 -4 6 -25 16 -46 15 -31 17 -43 7 -63 -6
-14 -11 -40 -11 -59 0 -19 -4 -35 -9 -35 -5 0 -16 -6 -24 -14 -8 -8 -43 -28
-77 -45 -47 -22 -68 -27 -81 -20 -10 5 -26 9 -37 9 -28 0 -113 40 -107 50 3 4
23 11 45 15 22 4 40 11 40 17 0 6 -9 8 -22 4 -13 -4 -50 -11 -84 -16 -34 -5
-67 -12 -75 -15 -8 -3 -29 5 -47 19 -26 19 -30 25 -17 30 9 3 25 6 35 6 19 0
40 27 40 50 0 7 -6 8 -17 2 -10 -6 -43 -13 -73 -16 -30 -4 -71 -9 -90 -13 -32
-6 -34 -5 -21 11 20 24 7 30 -28 12 -27 -14 -43 -15 -123 -5 -90 11 -94 12
-126 50 -19 21 -42 39 -53 39 -15 0 -19 7 -19 33 0 17 -9 51 -20 74 l-19 43
34 52 c47 74 48 74 95 82 32 5 41 10 36 22 -5 12 -1 14 16 8 30 -9 120 -6 131
5 5 5 -9 21 -35 40 -24 17 -56 48 -73 68 -16 20 -40 47 -51 59 -12 13 -20 25
-17 27 7 8 -21 47 -33 47 -7 0 -15 7 -18 16 -10 25 -7 27 12 13 15 -13 16 -12
3 3 -7 10 -17 15 -22 12 -11 -6 -20 30 -22 94 -1 28 -4 52 -7 52 -3 0 -6 10
-7 21 -2 17 1 19 10 10 19 -19 24 -13 31 37 3 26 9 59 12 75 5 22 3 27 -14 27
-42 0 -43 57 -1 105 l31 35 -27 -2 c-15 -2 -30 -8 -32 -15 -3 -7 -16 -13 -30
-13 -21 0 -23 -3 -13 -14 9 -12 7 -21 -11 -45 -19 -27 -57 -50 -62 -39 -1 1
-13 18 -26 37 -23 33 -23 34 -4 52 15 15 24 17 51 10 17 -5 32 -8 32 -7 0 2
-7 20 -15 40 -14 34 -14 37 2 43 18 7 33 22 33 35 0 11 -33 -2 -46 -18 -5 -7
-28 -14 -50 -16 -37 -3 -39 -5 -36 -33 4 -41 -26 -69 -68 -63 -24 4 -30 1 -25
-9 3 -8 5 -17 5 -19 0 -2 8 -4 17 -4 23 0 73 -49 73 -71 0 -10 -11 -30 -24
-44 l-24 -26 -31 30 c-17 16 -26 31 -21 33 6 2 6 9 0 17 -6 11 -12 12 -22 4
-7 -6 -26 -15 -43 -21 -16 -6 -22 -11 -13 -11 22 -1 31 -33 22 -74 -4 -17 -7
-35 -6 -39 3 -12 -25 -2 -52 20 -30 23 -70 29 -81 12 -3 -5 3 -10 13 -10 11 0
42 -15 70 -34 27 -19 52 -33 54 -31 2 3 12 -11 21 -31 17 -34 15 -33 -54 27
-66 56 -75 61 -107 55 -19 -3 -45 -14 -57 -26 -12 -11 -31 -20 -43 -20 -21 0
-21 -1 -8 -37 8 -21 17 -51 21 -68 7 -27 8 -28 15 -10 8 18 9 18 9 -5 1 -15 7
-32 14 -39 10 -10 8 -11 -7 -5 -18 7 -18 6 -1 -20 10 -14 23 -30 30 -34 11 -6
11 -14 0 -44 -7 -21 -8 -38 -3 -38 5 0 8 -6 7 -12 -5 -43 2 -70 21 -75 22 -6
26 -18 9 -28 -18 -12 23 -47 48 -42 12 2 20 1 18 -4 -3 -4 8 -21 25 -37 18
-18 30 -41 30 -57 0 -14 6 -28 14 -31 10 -4 13 -15 9 -38 -6 -37 27 -84 62
-91 11 -2 22 -4 24 -4 2 -1 -2 -7 -8 -15 -7 -8 -9 -26 -7 -42 8 -45 43 -57 84
-28 12 8 26 13 30 10 5 -3 19 2 31 10 16 11 19 19 12 28 -7 9 -7 16 2 25 9 10
8 11 -7 5 -13 -5 -17 -4 -13 3 4 6 0 16 -8 23 -10 9 -15 9 -15 1 0 -6 -7 -11
-15 -11 -8 0 -15 4 -15 9 0 5 -10 11 -21 14 -18 5 -21 11 -17 44 6 45 -12 77
-54 99 -27 14 -28 17 -15 32 18 20 11 71 -11 88 -24 18 -7 58 39 88 35 24 45
26 70 17 28 -10 31 -8 44 22 14 31 14 31 15 6 0 -35 -60 -87 -110 -95 -56 -9
-56 -27 -2 -53 90 -42 124 -66 73 -51 -28 8 -32 6 -37 -16 -9 -34 12 -79 63
-136 47 -53 45 -50 48 -122 1 -38 7 -53 25 -68 32 -26 67 -84 57 -94 -7 -7
-44 17 -45 29 -1 19 -9 30 -19 26 -7 -3 -5 -20 5 -54 12 -38 17 -44 20 -27 5
32 21 27 28 -8 7 -32 18 -38 31 -17 12 19 41 28 47 14 3 -9 5 -9 5 1 1 6 6 12
12 12 5 0 7 -5 4 -10 -4 -6 -2 -17 4 -24 7 -8 11 -18 10 -22 -3 -20 2 -28 10
-15 6 8 6 24 0 38 -5 12 -5 23 0 23 5 0 11 -9 14 -20 5 -19 11 -21 72 -24 8
-1 15 3 14 8 0 5 3 12 8 15 16 11 43 60 43 78 0 14 3 14 20 -5 12 -12 32 -29
45 -38 14 -9 25 -25 25 -35 0 -11 7 -22 15 -25 8 -4 12 -10 9 -15 -3 -5 0 -9
5 -9 6 0 11 6 11 13 0 7 7 4 15 -7 13 -18 16 -18 32 -4 20 17 95 17 151 0 27
-9 35 -8 50 8 20 22 113 30 135 12 10 -9 19 -8 36 5 13 8 49 29 80 45 60 32
84 55 77 74 -3 7 2 18 9 24 8 7 13 16 10 20 -3 4 2 13 10 20 11 9 14 23 9 49
-4 19 -8 47 -8 61 -1 14 -5 31 -10 38 -5 8 -4 18 1 23 6 6 23 -5 46 -31 21
-22 37 -37 37 -33 0 5 4 2 8 -5 13 -19 72 -25 120 -13 44 12 100 70 87 92 -4
6 -2 14 4 18 14 9 21 42 22 103 1 52 1 52 82 63 61 8 99 40 104 87 3 31 1 36
-15 31 -10 -2 -24 2 -31 11 -15 18 -11 62 6 59 22 -5 21 25 -3 48 -28 27 -31
39 -6 39 30 1 107 46 103 61 -2 8 -3 23 -3 34 1 12 -2 15 -6 8 -14 -23 -35 3
-28 33 4 16 5 26 1 22 -6 -6 -65 46 -65 57 0 3 13 11 30 20 44 23 72 85 74
164 l1 66 -47 3 c-32 2 -63 -4 -94 -18 -53 -23 -61 -21 -43 11 10 20 9 25 -10
40 -11 9 -21 22 -21 28 0 11 -19 15 -52 12 -9 -1 -22 7 -28 18 -12 23 -78 71
-97 71 -9 0 -13 -17 -13 -54z m23 -151 c-20 -27 -33 -32 -33 -12 0 17 20 37
37 37 11 0 9 -6 -4 -25z m377 -30 c0 -8 -7 -15 -15 -15 -8 0 -15 7 -15 15 0 8
7 15 15 15 8 0 15 -7 15 -15z m-1620 -75 c13 -9 13 -11 0 -20 -13 -9 -13 -11
0 -19 55 -34 55 -35 32 -74 -13 -19 -34 -43 -48 -52 -22 -14 -25 -22 -21 -51
4 -24 2 -34 -7 -34 -31 0 -47 95 -23 136 42 72 48 86 35 78 -17 -11 -56 -17
-43 -7 6 5 10 14 11 21 2 29 5 32 27 32 12 0 29 -5 37 -10z m-389 -137 c6 -16
11 -45 10 -65 -1 -29 5 -42 30 -62 17 -14 38 -26 47 -27 9 0 26 -2 37 -4 19
-3 19 -3 3 9 -19 14 -25 76 -8 76 6 0 11 -4 11 -10 1 -5 3 -13 4 -17 1 -5 6
-23 10 -41 4 -18 10 -30 13 -27 3 3 16 -2 29 -10 13 -9 23 -11 23 -5 0 5 -4
10 -10 10 -5 0 -10 5 -10 11 0 7 -8 18 -17 25 -16 11 -12 12 27 10 61 -4 90
-14 90 -32 0 -8 4 -14 8 -14 23 0 16 16 -29 59 -34 33 -49 55 -48 72 1 21 2
21 6 4 7 -26 23 -46 34 -40 8 6 59 -44 59 -57 0 -4 17 -19 38 -32 54 -34 72
-54 72 -80 0 -31 -25 -52 -43 -37 -8 6 -18 7 -22 3 -5 -4 -5 -2 -2 4 9 15 -15
24 -56 23 -30 0 -31 -1 -9 -10 28 -11 24 -33 -5 -37 -15 -2 -21 2 -19 15 1 22
-94 77 -108 62 -16 -15 -26 -11 -36 17 -10 24 -13 26 -55 20 -48 -8 -105 15
-105 42 0 10 4 10 16 -2 23 -24 28 -19 10 9 -16 24 -18 48 -14 138 0 15 3 27
5 27 2 0 8 -12 14 -27z m278 -27 c7 -8 8 -17 3 -20 -6 -3 -12 3 -15 14 -6 24
-4 25 12 6z m1514 -43 c-5 -12 -7 -12 -14 -1 -13 20 -11 28 5 22 8 -3 12 -12
9 -21z m-1713 7 c0 -5 -5 -10 -11 -10 -6 0 -9 -9 -6 -20 8 -33 -11 -33 -28 -1
-19 38 -20 36 15 39 17 1 30 -2 30 -8z m310 -31 c0 -5 -4 -9 -10 -9 -5 0 -10
7 -10 16 0 8 5 12 10 9 6 -3 10 -10 10 -16z m90 -127 c0 -4 -9 -8 -20 -9 -11
-1 -18 2 -15 8 7 11 35 12 35 1z m-350 -12 c0 -5 -4 -10 -8 -10 -5 0 -27 -16
-50 -36 -47 -40 -60 -24 -14 18 36 34 72 48 72 28z m1478 -17 c-2 -9 -8 -18
-15 -20 -7 -3 -9 3 -6 16 6 25 26 28 21 4z m-1397 -44 c5 -11 7 -19 3 -19 -11
0 -44 32 -44 41 0 14 30 -2 41 -22z m37 18 c8 -10 6 -13 -9 -13 -19 0 -24 7
-12 19 8 9 9 9 21 -6z m1500 -22 c3 -11 0 -15 -8 -10 -7 4 -10 1 -8 -11 5 -30
-29 -28 -48 2 -17 25 -17 27 0 40 22 16 60 4 64 -21z m-1218 6 c0 -5 9 -11 21
-14 13 -4 18 -10 14 -17 -4 -7 -1 -16 6 -21 9 -6 3 -8 -18 -6 -23 1 -33 7 -33
19 0 9 -3 23 -6 32 -3 9 -1 16 5 16 6 0 11 -4 11 -9z m11 -92 c8 -16 14 -17
30 -8 11 5 30 9 42 6 19 -3 18 -4 -8 -12 -16 -4 -36 -13 -44 -19 -8 -6 -35
-12 -60 -13 -26 0 -65 -11 -88 -22 -31 -17 -46 -19 -66 -12 -38 15 -44 32 -8
25 17 -4 43 -2 58 4 16 6 45 14 67 17 21 3 45 9 53 14 13 7 13 9 -1 14 -9 4
-16 13 -16 21 0 20 27 10 41 -15z m-484 -1 c-3 -8 -6 -5 -6 6 -1 11 2 17 5 13
3 -3 4 -12 1 -19z m333 5 c-1 -21 -26 -40 -45 -33 -17 6 -16 8 8 14 15 3 25
11 22 16 -3 6 -1 10 4 10 6 0 11 -3 11 -7z m90 -12 c0 -5 -7 -11 -15 -15 -15
-5 -20 5 -8 17 9 10 23 9 23 -2z m637 -77 c-3 -3 -12 -4 -19 -1 -8 3 -5 6 6 6
11 1 17 -2 13 -5z m301 -30 c2 -11 -4 -27 -13 -34 -13 -11 -18 -10 -29 5 -7
10 -11 27 -8 37 6 26 46 20 50 -8z m-998 0 c0 -8 -5 -12 -10 -9 -6 4 -8 11 -5
16 9 14 15 11 15 -7z m849 -3 c7 -13 6 -23 -3 -36 -18 -25 -37 -10 -34 26 3
33 22 38 37 10z m-1099 5 c0 -2 -7 -6 -15 -10 -8 -3 -15 -1 -15 4 0 6 7 10 15
10 8 0 15 -2 15 -4z m1553 -20 c12 -10 16 -22 13 -42 -3 -15 0 -34 6 -41 8
-10 6 -13 -6 -13 -9 0 -16 -7 -16 -16 0 -35 -29 8 -36 52 -10 68 3 87 39 60z
m-189 -18 c-3 -4 0 -8 6 -8 8 0 8 -6 0 -20 -6 -11 -8 -20 -4 -20 3 0 0 -8 -7
-17 -12 -15 -12 -16 1 -8 12 6 12 5 3 -5 -18 -20 -33 -2 -33 39 0 21 2 40 5
43 8 8 34 5 29 -4z m-1157 -14 c9 -25 -10 -36 -35 -18 -12 8 -22 19 -22 25 0
16 50 10 57 -7z m27 -19 c-4 -8 -10 -15 -15 -15 -4 0 -6 7 -3 15 4 8 10 15 15
15 4 0 6 -7 3 -15z m536 -393 c41 -2 84 -11 95 -18 18 -13 15 -14 -30 -16 -92
-3 -159 2 -170 14 -7 8 -5 9 8 5 9 -4 17 -5 17 -2 0 2 -8 12 -17 21 -17 17
-17 17 2 9 11 -4 54 -10 95 -13z"/>
<path d="M815 1305 c4 -13 -1 -25 -17 -37 -13 -10 -18 -18 -13 -17 6 1 19 -2
29 -6 14 -6 23 -3 32 10 17 23 18 35 3 35 -7 0 -18 8 -26 18 -14 16 -14 16 -8
-3z"/>
<path d="M1305 1880 c-3 -6 1 -7 9 -4 18 7 21 14 7 14 -6 0 -13 -4 -16 -10z"/>
<path d="M1610 1886 c0 -2 7 -9 15 -16 9 -7 15 -8 15 -2 0 5 -7 12 -15 16 -8
3 -15 4 -15 2z"/>
<path d="M1269 1853 c-13 -16 -12 -17 4 -4 9 7 17 15 17 17 0 8 -8 3 -21 -13z"/>
<path d="M1199 1833 l-24 -28 28 24 c25 23 32 31 24 31 -2 0 -14 -12 -28 -27z"/>
<path d="M1219 1813 l-24 -28 28 24 c25 23 32 31 24 31 -2 0 -14 -12 -28 -27z"/>
<path d="M520 1812 c0 -12 9 -27 20 -34 27 -17 25 -38 -7 -63 -18 -15 -24 -26
-17 -36 14 -23 4 -53 -28 -80 -17 -14 -29 -31 -27 -37 2 -7 19 1 39 18 19 17
45 38 56 48 15 13 23 33 25 64 2 25 1 44 -3 41 -5 -2 -8 -2 -8 2 0 3 12 10 27
16 l26 10 -39 20 c-21 12 -45 28 -51 37 -12 14 -13 13 -13 -6z"/>
<path d="M1704 1808 c9 -13 19 -30 22 -39 3 -8 19 -20 36 -27 16 -6 27 -16 23
-21 -3 -6 1 -11 11 -11 14 0 15 7 10 42 -4 23 -8 44 -10 45 -5 6 -50 15 -68
15 -10 -1 -18 3 -18 9 0 5 -5 9 -11 9 -7 0 -5 -9 5 -22z"/>
<path d="M1870 1795 c13 -14 26 -25 28 -25 3 0 -5 11 -18 25 -13 14 -26 25
-28 25 -3 0 5 -11 18 -25z"/>
<path d="M1815 1696 c-19 -14 -19 -15 -2 -22 22 -8 30 -1 25 21 -3 14 -5 14
-23 1z"/>
<path d="M1830 1624 c5 -21 12 -40 17 -43 11 -8 9 -212 -2 -265 -6 -31 -5 -38
6 -34 8 2 20 18 28 34 8 16 20 32 27 36 6 5 10 17 7 27 -4 16 0 19 21 17 20
-3 26 1 26 16 0 11 -4 17 -9 14 -16 -10 -21 25 -6 40 8 8 17 14 20 14 4 -1 8
0 10 2 2 2 -7 5 -20 6 -13 1 -27 -3 -30 -8 -3 -6 -11 -10 -16 -10 -6 0 -8 4
-5 8 10 17 -17 108 -40 133 -13 14 -24 30 -24 37 0 7 -4 12 -9 12 -5 0 -5 -16
-1 -36z"/>
<path d="M478 1523 c-17 -4 -33 -33 -18 -33 9 0 40 28 40 36 0 2 -1 3 -2 3 -2
-1 -10 -3 -20 -6z"/>
<path d="M1971 1514 c0 -11 3 -14 6 -6 3 7 2 16 -1 19 -3 4 -6 -2 -5 -13z"/>
<path d="M2011 1394 c0 -11 3 -14 6 -6 3 7 2 16 -1 19 -3 4 -6 -2 -5 -13z"/>
<path d="M1824 1235 c-17 -26 -14 -42 5 -30 6 3 15 15 21 25 16 30 -7 34 -26
5z"/>
<path d="M460 1225 c0 -14 6 -25 13 -25 21 0 27 11 16 31 -14 27 -29 23 -29
-6z"/>
<path d="M1874 1138 l-19 -23 23 19 c21 18 27 26 19 26 -2 0 -12 -10 -23 -22z"/>
<path d="M1230 1115 c13 -14 26 -25 28 -25 3 0 -5 11 -18 25 -13 14 -26 25
-28 25 -3 0 5 -11 18 -25z"/>
<path d="M1748 1085 c-3 -3 -29 -14 -59 -25 -30 -11 -46 -19 -37 -20 19 0 108
36 108 45 0 6 -5 7 -12 0z"/>
<path d="M1307 1059 c7 -7 15 -10 18 -7 3 3 -2 9 -12 12 -14 6 -15 5 -6 -5z"/>
<path d="M1598 1033 c6 -2 18 -2 25 0 6 3 1 5 -13 5 -14 0 -19 -2 -12 -5z"/>
<path d="M1410 990 c0 -5 5 -10 10 -10 6 0 10 5 10 10 0 6 -4 10 -10 10 -5 0
-10 -4 -10 -10z"/>
<path d="M595 940 c4 -6 11 -8 16 -5 14 9 11 15 -7 15 -8 0 -12 -5 -9 -10z"/>
<path d="M617 904 c-8 -8 3 -34 14 -34 11 0 12 27 0 34 -4 3 -11 3 -14 0z"/>
<path d="M590 832 c0 -12 19 -26 26 -19 2 2 -2 10 -11 17 -9 8 -15 8 -15 2z"/>
<path d="M650 820 c-7 -31 -6 -39 7 -45 22 -8 23 -4 8 25 -8 14 -15 23 -15 20z"/>
<path d="M700 753 c0 -5 7 -16 15 -26 7 -11 11 -25 9 -32 -7 -18 16 -31 26
-15 10 15 3 38 -18 63 -16 17 -32 23 -32 10z"/>
<path d="M643 723 c9 -2 17 -9 17 -14 0 -5 5 -9 11 -9 8 0 8 5 -1 15 -7 8 -20
14 -29 14 -13 -1 -13 -2 2 -6z"/>
<path d="M1399 693 c-13 -15 -12 -15 9 -4 23 12 28 21 13 21 -5 0 -15 -7 -22
-17z"/>
<path d="M859 647 c6 -8 8 -17 4 -20 -8 -9 20 -9 41 -1 9 3 16 13 16 22 0 13
-3 12 -20 -3 -18 -16 -20 -16 -26 -1 -3 9 -11 16 -16 16 -7 0 -6 -5 1 -13z"/>
<path d="M905 610 c-4 -6 -11 -7 -17 -4 -7 4 -8 2 -4 -4 5 -8 -2 -12 -18 -12
-36 0 -32 -13 8 -33 32 -15 35 -15 34 1 -1 9 2 27 6 40 8 23 2 30 -9 12z"/>
<path d="M1266 499 c-14 -17 -26 -34 -26 -38 0 -4 16 -15 35 -24 19 -9 35 -21
35 -27 0 -5 11 -10 25 -10 18 0 23 4 19 15 -5 13 -9 13 -23 3 -14 -12 -15 -11
-2 5 9 12 21 15 34 11 20 -6 20 -6 3 11 -11 11 -16 27 -13 42 2 13 2 21 -1 19
-2 -3 -14 1 -26 9 -28 20 -30 20 -60 -16z"/>
<path d="M930 460 c0 -5 5 -10 11 -10 5 0 7 5 4 10 -3 6 -8 10 -11 10 -2 0 -4
-4 -4 -10z"/>
<path d="M960 454 c0 -8 5 -12 10 -9 6 3 10 10 10 16 0 5 -4 9 -10 9 -5 0 -10
-7 -10 -16z"/>
<path d="M1529 441 c-19 -4 -25 -11 -22 -26 2 -11 4 -27 5 -36 1 -9 7 -15 14
-12 6 2 9 15 6 29 -2 13 0 24 6 24 5 0 12 7 16 15 3 8 4 14 3 14 -1 -1 -14 -4
-28 -8z"/>
<path d="M1475 379 c-4 -6 -5 -13 -2 -16 7 -7 27 6 27 18 0 12 -17 12 -25 -2z"/>
</g>
</svg>
