<?xml version="1.0" standalone="no"?>
<!DOCTYPE svg PUBLIC "-//W3C//DTD SVG 20010904//EN"
 "http://www.w3.org/TR/2001/REC-SVG-20010904/DTD/svg10.dtd">
<svg version="1.0" xmlns="http://www.w3.org/2000/svg"
 width="200.000000pt" height="210.000000pt" viewBox="0 0 200.000000 210.000000"
 preserveAspectRatio="xMidYMid meet">

<g transform="translate(0.000000,210.000000) scale(0.100000,-0.100000)"
fill="#000000" stroke="none">
<path d="M918 1983 c6 -2 18 -2 25 0 6 3 1 5 -13 5 -14 0 -19 -2 -12 -5z"/>
<path d="M1098 1983 c7 -3 16 -2 19 1 4 3 -2 6 -13 5 -11 0 -14 -3 -6 -6z"/>
<path d="M1270 1950 c8 -5 22 -9 30 -9 10 0 8 3 -5 9 -27 12 -43 12 -25 0z"/>
<path d="M1330 1930 c8 -5 20 -10 25 -10 6 0 3 5 -5 10 -8 5 -19 10 -25 10 -5
0 -3 -5 5 -10z"/>
<path d="M1426 1885 c10 -8 23 -15 28 -15 6 0 1 7 -10 15 -10 8 -23 15 -28 15
-6 0 -1 -7 10 -15z"/>
<path d="M559 1859 l-24 -20 28 17 c15 9 27 18 27 20 0 8 -8 4 -31 -17z"/>
<path d="M479 1803 l-24 -28 28 24 c25 23 32 31 24 31 -2 0 -14 -12 -28 -27z"/>
<path d="M1580 1786 c0 -2 8 -10 18 -17 15 -13 16 -12 3 4 -13 16 -21 21 -21
13z"/>
<path d="M400 1735 c-24 -25 -42 -45 -39 -45 3 0 25 20 49 45 24 25 42 45 39
45 -3 0 -25 -20 -49 -45z"/>
<path d="M1650 1715 c19 -19 36 -35 39 -35 3 0 -10 16 -29 35 -19 19 -36 35
-39 35 -3 0 10 -16 29 -35z"/>
<path d="M1424 1714 c-18 -14 -18 -15 4 -4 12 6 22 13 22 15 0 8 -5 6 -26 -11z"/>
<path d="M1510 1675 c0 -5 5 -17 10 -25 5 -8 10 -10 10 -5 0 6 -5 17 -10 25
-5 8 -10 11 -10 5z"/>
<path d="M1690 1666 c0 -2 8 -10 18 -17 15 -13 16 -12 3 4 -13 16 -21 21 -21
13z"/>
<path d="M303 1618 c-15 -18 -35 -58 -29 -58 2 0 13 16 25 35 20 35 22 46 4
23z"/>
<path d="M1185 1620 c-13 -6 -15 -9 -5 -9 8 0 22 4 30 9 18 12 2 12 -25 0z"/>
<path d="M1105 1600 c-13 -6 -15 -9 -5 -9 8 0 22 4 30 9 18 12 2 12 -25 0z"/>
<path d="M1038 1583 c6 -2 18 -2 25 0 6 3 1 5 -13 5 -14 0 -19 -2 -12 -5z"/>
<path d="M1760 1561 c0 -6 4 -13 10 -16 6 -3 7 1 4 9 -7 18 -14 21 -14 7z"/>
<path d="M1551 1534 c0 -11 3 -14 6 -6 3 7 2 16 -1 19 -3 4 -6 -2 -5 -13z"/>
<path d="M1786 1517 c3 -10 9 -15 12 -12 3 3 0 11 -7 18 -10 9 -11 8 -5 -6z"/>
<path d="M1562 1465 c0 -16 2 -22 5 -12 2 9 2 23 0 30 -3 6 -5 -1 -5 -18z"/>
<path d="M690 1449 c0 -5 5 -7 10 -4 6 3 10 8 10 11 0 2 -4 4 -10 4 -5 0 -10
-5 -10 -11z"/>
<path d="M1574 1310 c0 -58 1 -81 3 -52 2 28 2 76 0 105 -2 28 -3 5 -3 -53z"/>
<path d="M1837 1379 c4 -13 8 -18 11 -10 2 7 -1 18 -6 23 -8 8 -9 4 -5 -13z"/>
<path d="M533 1318 c-11 -13 -24 -30 -28 -38 -8 -16 -6 -14 34 33 14 15 22 27
19 27 -2 0 -14 -10 -25 -22z"/>
<path d="M1862 1280 c0 -14 2 -19 5 -12 2 6 2 18 0 25 -3 6 -5 1 -5 -13z"/>
<path d="M162 1240 c0 -14 2 -19 5 -12 2 6 2 18 0 25 -3 6 -5 1 -5 -13z"/>
<path d="M470 1230 c-6 -11 -8 -20 -6 -20 3 0 10 9 16 20 6 11 8 20 6 20 -3 0
-10 -9 -16 -20z"/>
<path d="M1873 1145 c0 -38 2 -53 4 -32 2 20 2 52 0 70 -2 17 -4 1 -4 -38z"/>
<path d="M435 1169 c-4 -6 -5 -12 -2 -15 2 -3 7 2 10 11 7 17 1 20 -8 4z"/>
<path d="M1562 1150 c0 -14 2 -19 5 -12 2 6 2 18 0 25 -3 6 -5 1 -5 -13z"/>
<path d="M152 1130 c0 -19 2 -27 5 -17 2 9 2 25 0 35 -3 9 -5 1 -5 -18z"/>
<path d="M421 1124 c0 -11 3 -14 6 -6 3 7 2 16 -1 19 -3 4 -6 -2 -5 -13z"/>
<path d="M1546 1069 c-8 -42 0 -50 9 -9 4 17 5 34 2 36 -2 3 -7 -10 -11 -27z"/>
<path d="M401 1054 c0 -11 3 -14 6 -6 3 7 2 16 -1 19 -3 4 -6 -2 -5 -13z"/>
<path d="M162 1020 c0 -14 2 -19 5 -12 2 6 2 18 0 25 -3 6 -5 1 -5 -13z"/>
<path d="M1862 1015 c0 -16 2 -22 5 -12 2 9 2 23 0 30 -3 6 -5 -1 -5 -18z"/>
<path d="M393 975 c0 -27 2 -38 4 -22 2 15 2 37 0 50 -2 12 -4 0 -4 -28z"/>
<path d="M171 964 c0 -11 3 -14 6 -6 3 7 2 16 -1 19 -3 4 -6 -2 -5 -13z"/>
<path d="M1476 863 c-6 -14 -5 -15 5 -6 7 7 10 15 7 18 -3 3 -9 -2 -12 -12z"/>
<path d="M401 834 c0 -11 3 -14 6 -6 3 7 2 16 -1 19 -3 4 -6 -2 -5 -13z"/>
<path d="M411 794 c0 -11 3 -14 6 -6 3 7 2 16 -1 19 -3 4 -6 -2 -5 -13z"/>
<path d="M1426 768 l-18 -33 21 25 c18 22 26 40 18 40 -1 0 -11 -15 -21 -32z"/>
<path d="M430 735 c0 -5 5 -17 10 -25 5 -8 10 -10 10 -5 0 6 -5 17 -10 25 -5
8 -10 11 -10 5z"/>
<path d="M256 717 c3 -10 9 -15 12 -12 3 3 0 11 -7 18 -10 9 -11 8 -5 -6z"/>
<path d="M1380 698 c-15 -21 -17 -28 -6 -19 16 13 41 51 33 51 -2 0 -14 -15
-27 -32z"/>
<path d="M1750 700 c-6 -11 -8 -20 -6 -20 3 0 10 9 16 20 6 11 8 20 6 20 -3 0
-10 -9 -16 -20z"/>
<path d="M300 641 c5 -11 15 -23 21 -27 6 -3 3 5 -6 20 -20 30 -30 35 -15 7z"/>
<path d="M1324 628 l-29 -33 33 29 c30 28 37 36 29 36 -2 0 -16 -15 -33 -32z"/>
<path d="M480 630 c6 -11 13 -20 16 -20 2 0 0 9 -6 20 -6 11 -13 20 -16 20 -2
0 0 -9 6 -20z"/>
<path d="M1659 573 l-34 -38 38 34 c34 33 42 41 34 41 -2 0 -19 -17 -38 -37z"/>
<path d="M1245 553 c-22 -19 -31 -31 -20 -25 19 9 74 63 64 62 -2 -1 -22 -17
-44 -37z"/>
<path d="M520 566 c0 -2 8 -10 18 -17 15 -13 16 -12 3 4 -13 16 -21 21 -21 13z"/>
<path d="M395 520 c10 -11 20 -20 23 -20 3 0 -3 9 -13 20 -10 11 -20 20 -23
20 -3 0 3 -9 13 -20z"/>
<path d="M1170 499 c-22 -18 -22 -19 -3 -10 12 6 25 16 28 21 9 15 3 12 -25
-11z"/>
<path d="M570 506 c0 -2 8 -10 18 -17 15 -13 16 -12 3 4 -13 16 -21 21 -21 13z"/>
<path d="M1554 468 l-19 -23 23 19 c21 18 27 26 19 26 -2 0 -12 -10 -23 -22z"/>
<path d="M465 460 c10 -11 20 -20 23 -20 3 0 -3 9 -13 20 -10 11 -20 20 -23
20 -3 0 3 -9 13 -20z"/>
<path d="M1050 440 c-9 -6 -10 -10 -3 -10 6 0 15 5 18 10 8 12 4 12 -15 0z"/>
<path d="M958 413 c7 -3 16 -2 19 1 4 3 -2 6 -13 5 -11 0 -14 -3 -6 -6z"/>
<path d="M888 403 c6 -2 18 -2 25 0 6 3 1 5 -13 5 -14 0 -19 -2 -12 -5z"/>
<path d="M1385 360 c-3 -6 1 -7 9 -4 18 7 21 14 7 14 -6 0 -13 -4 -16 -10z"/>
<path d="M1340 340 c-9 -6 -10 -10 -3 -10 6 0 15 5 18 10 8 12 4 12 -15 0z"/>
<path d="M1260 310 c-18 -12 -2 -12 25 0 13 6 15 9 5 9 -8 0 -22 -4 -30 -9z"/>
<path d="M1118 273 c6 -2 18 -2 25 0 6 3 1 5 -13 5 -14 0 -19 -2 -12 -5z"/>
<path d="M1008 263 c12 -2 30 -2 40 0 9 3 -1 5 -23 4 -22 0 -30 -2 -17 -4z"/>
</g>
</svg>
